<svg id="visual" viewBox="0 0 900 600" width="900" height="600" xmlns="http://www.w3.org/2000/svg" xmlns:xlink="http://www.w3.org/1999/xlink" version="1.1"><rect x="0" y="0" width="900" height="600" fill="#957579"></rect><defs><linearGradient id="grad1_0" x1="33.3%" y1="100%" x2="100%" y2="0%"><stop offset="20%" stop-color="#811826" stop-opacity="1"></stop><stop offset="80%" stop-color="#811826" stop-opacity="1"></stop></linearGradient></defs><defs><linearGradient id="grad1_1" x1="33.3%" y1="100%" x2="100%" y2="0%"><stop offset="20%" stop-color="#811826" stop-opacity="1"></stop><stop offset="80%" stop-color="#872b34" stop-opacity="1"></stop></linearGradient></defs><defs><linearGradient id="grad1_2" x1="33.3%" y1="100%" x2="100%" y2="0%"><stop offset="20%" stop-color="#8b3b43" stop-opacity="1"></stop><stop offset="80%" stop-color="#872b34" stop-opacity="1"></stop></linearGradient></defs><defs><linearGradient id="grad1_3" x1="33.3%" y1="100%" x2="100%" y2="0%"><stop offset="20%" stop-color="#8b3b43" stop-opacity="1"></stop><stop offset="80%" stop-color="#8f4a51" stop-opacity="1"></stop></linearGradient></defs><defs><linearGradient id="grad1_4" x1="33.3%" y1="100%" x2="100%" y2="0%"><stop offset="20%" stop-color="#92595e" stop-opacity="1"></stop><stop offset="80%" stop-color="#8f4a51" stop-opacity="1"></stop></linearGradient></defs><defs><linearGradient id="grad1_5" x1="33.3%" y1="100%" x2="100%" y2="0%"><stop offset="20%" stop-color="#92595e" stop-opacity="1"></stop><stop offset="80%" stop-color="#94676c" stop-opacity="1"></stop></linearGradient></defs><defs><linearGradient id="grad1_6" x1="33.3%" y1="100%" x2="100%" y2="0%"><stop offset="20%" stop-color="#957579" stop-opacity="1"></stop><stop offset="80%" stop-color="#94676c" stop-opacity="1"></stop></linearGradient></defs><defs><linearGradient id="grad2_0" x1="0%" y1="100%" x2="66.7%" y2="0%"><stop offset="20%" stop-color="#811826" stop-opacity="1"></stop><stop offset="80%" stop-color="#811826" stop-opacity="1"></stop></linearGradient></defs><defs><linearGradient id="grad2_1" x1="0%" y1="100%" x2="66.7%" y2="0%"><stop offset="20%" stop-color="#872b34" stop-opacity="1"></stop><stop offset="80%" stop-color="#811826" stop-opacity="1"></stop></linearGradient></defs><defs><linearGradient id="grad2_2" x1="0%" y1="100%" x2="66.7%" y2="0%"><stop offset="20%" stop-color="#872b34" stop-opacity="1"></stop><stop offset="80%" stop-color="#8b3b43" stop-opacity="1"></stop></linearGradient></defs><defs><linearGradient id="grad2_3" x1="0%" y1="100%" x2="66.7%" y2="0%"><stop offset="20%" stop-color="#8f4a51" stop-opacity="1"></stop><stop offset="80%" stop-color="#8b3b43" stop-opacity="1"></stop></linearGradient></defs><defs><linearGradient id="grad2_4" x1="0%" y1="100%" x2="66.7%" y2="0%"><stop offset="20%" stop-color="#8f4a51" stop-opacity="1"></stop><stop offset="80%" stop-color="#92595e" stop-opacity="1"></stop></linearGradient></defs><defs><linearGradient id="grad2_5" x1="0%" y1="100%" x2="66.7%" y2="0%"><stop offset="20%" stop-color="#94676c" stop-opacity="1"></stop><stop offset="80%" stop-color="#92595e" stop-opacity="1"></stop></linearGradient></defs><defs><linearGradient id="grad2_6" x1="0%" y1="100%" x2="66.7%" y2="0%"><stop offset="20%" stop-color="#94676c" stop-opacity="1"></stop><stop offset="80%" stop-color="#957579" stop-opacity="1"></stop></linearGradient></defs><g transform="translate(900, 600)"><path d="M-486.7 0C-482.3 -50.7 -477.8 -101.3 -462.9 -150.4C-448 -199.5 -422.7 -247 -385.9 -280.4C-349.1 -313.8 -301 -333.1 -259.2 -356.8C-217.5 -380.4 -182.1 -408.4 -140 -430.8C-97.9 -453.2 -48.9 -470 0 -486.7L0 0Z" fill="#946e73"></path><path d="M-417.2 0C-413.4 -43.4 -409.6 -86.9 -396.8 -128.9C-384 -171 -362.3 -211.7 -330.8 -240.3C-299.3 -269 -258 -285.5 -222.2 -305.8C-186.4 -326.1 -156.1 -350.1 -120 -369.3C-83.9 -388.5 -41.9 -402.8 0 -417.2L0 0Z" fill="#936065"></path><path d="M-347.7 0C-344.5 -36.2 -341.3 -72.4 -330.7 -107.4C-320 -142.5 -301.9 -176.4 -275.6 -200.3C-249.4 -224.1 -215 -237.9 -185.2 -254.8C-155.3 -271.7 -130.1 -291.7 -100 -307.7C-69.9 -323.7 -34.9 -335.7 0 -347.7L0 0Z" fill="#905258"></path><path d="M-278.1 0C-275.6 -29 -273 -57.9 -264.5 -86C-256 -114 -241.5 -141.1 -220.5 -160.2C-199.5 -179.3 -172 -190.3 -148.1 -203.9C-124.3 -217.4 -104.1 -233.4 -80 -246.2C-55.9 -259 -28 -268.6 0 -278.1L0 0Z" fill="#8d434a"></path><path d="M-208.6 0C-206.7 -21.7 -204.8 -43.4 -198.4 -64.5C-192 -85.5 -181.1 -105.8 -165.4 -120.2C-149.6 -134.5 -129 -142.8 -111.1 -152.9C-93.2 -163 -78.1 -175 -60 -184.6C-41.9 -194.2 -21 -201.4 0 -208.6L0 0Z" fill="#89343b"></path><path d="M-139.1 0C-137.8 -14.5 -136.5 -29 -132.3 -43C-128 -57 -120.8 -70.6 -110.3 -80.1C-99.8 -89.7 -86 -95.2 -74.1 -101.9C-62.1 -108.7 -52 -116.7 -40 -123.1C-28 -129.5 -14 -134.3 0 -139.1L0 0Z" fill="#84222d"></path><path d="M-69.5 0C-68.9 -7.2 -68.3 -14.5 -66.1 -21.5C-64 -28.5 -60.4 -35.3 -55.1 -40.1C-49.9 -44.8 -43 -47.6 -37 -51C-31.1 -54.3 -26 -58.3 -20 -61.5C-14 -64.7 -7 -67.1 0 -69.5L0 0Z" fill="#811826"></path></g><g transform="translate(0, 0)"><path d="M486.7 0C485.2 53 483.6 106 461.3 149.9C438.9 193.7 395.7 228.4 360 261.6C324.3 294.8 296.2 326.6 263.9 363.2C231.6 399.9 195.1 441.5 150.4 462.9C105.7 484.3 52.9 485.5 0 486.7L0 0Z" fill="#946e73"></path><path d="M417.2 0C415.9 45.4 414.6 90.9 395.4 128.5C376.2 166 339.2 195.7 308.6 224.2C278 252.7 253.9 279.9 226.2 311.4C198.5 342.8 167.2 378.5 128.9 396.8C90.6 415.1 45.3 416.2 0 417.2L0 0Z" fill="#936065"></path><path d="M347.7 0C346.6 37.9 345.5 75.7 329.5 107.1C313.5 138.4 282.6 163.1 257.2 186.8C231.7 210.6 211.6 233.3 188.5 259.5C165.4 285.7 139.4 315.4 107.4 330.7C75.5 345.9 37.8 346.8 0 347.7L0 0Z" fill="#905258"></path><path d="M278.1 0C277.3 30.3 276.4 60.6 263.6 85.6C250.8 110.7 226.1 130.5 205.7 149.5C185.3 168.4 169.3 186.6 150.8 207.6C132.3 228.5 111.5 252.3 86 264.5C60.4 276.8 30.2 277.5 0 278.1L0 0Z" fill="#8d434a"></path><path d="M208.6 0C207.9 22.7 207.3 45.4 197.7 64.2C188.1 83 169.6 97.9 154.3 112.1C139 126.3 127 140 113.1 155.7C99.3 171.4 83.6 189.2 64.5 198.4C45.3 207.6 22.7 208.1 0 208.6L0 0Z" fill="#89343b"></path><path d="M139.1 0C138.6 15.1 138.2 30.3 131.8 42.8C125.4 55.3 113.1 65.2 102.9 74.7C92.7 84.2 84.6 93.3 75.4 103.8C66.2 114.3 55.7 126.2 43 132.3C30.2 138.4 15.1 138.7 0 139.1L0 0Z" fill="#84222d"></path><path d="M69.5 0C69.3 7.6 69.1 15.1 65.9 21.4C62.7 27.7 56.5 32.6 51.4 37.4C46.3 42.1 42.3 46.7 37.7 51.9C33.1 57.1 27.9 63.1 21.5 66.1C15.1 69.2 7.6 69.4 0 69.5L0 0Z" fill="#811826"></path></g></svg>